<?xml version="1.0" standalone="no"?>
<!DOCTYPE svg PUBLIC "-//W3C//DTD SVG 20010904//EN"
 "http://www.w3.org/TR/2001/REC-SVG-20010904/DTD/svg10.dtd">
<svg version="1.0" xmlns="http://www.w3.org/2000/svg"
 width="160.000000pt" height="160.000000pt" viewBox="0 0 160.000000 160.000000"
 preserveAspectRatio="xMidYMid meet">
<metadata>
Created by potrace 1.14, written by Peter Selinger 2001-2017
</metadata>
<g transform="translate(0.000000,160.000000) scale(0.100000,-0.100000)"
fill="#000000" stroke="none">
<path d="M665 1426 c-61 -29 -134 -59 -163 -66 -126 -29 -227 -104 -274 -203
-14 -29 -46 -95 -71 -148 -25 -53 -64 -141 -86 -196 -42 -103 -42 -111 -13
-193 9 -28 12 -35 27 -95 9 -33 27 -100 40 -150 14 -49 29 -117 35 -150 6 -33
16 -65 23 -72 15 -15 158 -31 237 -27 128 7 429 4 475 -5 50 -9 100 -9 305 3
248 14 252 16 289 86 62 120 72 157 76 289 2 73 -1 141 -7 161 -14 43 -75 144
-129 213 -23 28 -70 110 -105 182 -70 146 -79 158 -146 203 -26 18 -51 39 -56
48 -21 37 -93 100 -128 112 -22 7 -48 17 -59 22 -24 10 -137 40 -151 40 -5 0
-59 -24 -119 -54z"/>
</g>
</svg>
